<svg width="25" height="25" viewBox="0 0 25 25" fill="none" xmlns="http://www.w3.org/2000/svg">
<path d="M11.1177 3.33531V7.78239C11.1177 8.66697 10.7663 9.51532 10.1408 10.1408C9.51532 10.7663 8.66697 11.1177 7.78239 11.1177H3.33531C2.45073 11.1177 1.60238 10.7663 0.976889 10.1408C0.351398 9.51532 0 8.66697 0 7.78239V3.33531C0 2.45073 0.351398 1.60238 0.976889 0.976889C1.60238 0.351398 2.45073 0 3.33531 0H7.78239C8.66697 0 9.51532 0.351398 10.1408 0.976889C10.7663 1.60238 11.1177 2.45073 11.1177 3.33531ZM21.1236 0H16.6765C15.792 0 14.9436 0.351398 14.3181 0.976889C13.6926 1.60238 13.3412 2.45073 13.3412 3.33531V7.78239C13.3412 8.66697 13.6926 9.51532 14.3181 10.1408C14.9436 10.7663 15.792 11.1177 16.6765 11.1177H21.1236C22.0082 11.1177 22.8566 10.7663 23.482 10.1408C24.1075 9.51532 24.4589 8.66697 24.4589 7.78239V3.33531C24.4589 2.45073 24.1075 1.60238 23.482 0.976889C22.8566 0.351398 22.0082 0 21.1236 0ZM7.78239 13.3412H3.33531C2.45073 13.3412 1.60238 13.6926 0.976889 14.3181C0.351398 14.9436 0 15.792 0 16.6765V21.1236C0 22.0082 0.351398 22.8566 0.976889 23.482C1.60238 24.1075 2.45073 24.4589 3.33531 24.4589H7.78239C8.66697 24.4589 9.51532 24.1075 10.1408 23.482C10.7663 22.8566 11.1177 22.0082 11.1177 21.1236V16.6765C11.1177 15.792 10.7663 14.9436 10.1408 14.3181C9.51532 13.6926 8.66697 13.3412 7.78239 13.3412ZM21.1236 13.3412H16.6765C15.792 13.3412 14.9436 13.6926 14.3181 14.3181C13.6926 14.9436 13.3412 15.792 13.3412 16.6765V21.1236C13.3412 22.0082 13.6926 22.8566 14.3181 23.482C14.9436 24.1075 15.792 24.4589 16.6765 24.4589H21.1236C22.0082 24.4589 22.8566 24.1075 23.482 23.482C24.1075 22.8566 24.4589 22.0082 24.4589 21.1236V16.6765C24.4589 15.792 24.1075 14.9436 23.482 14.3181C22.8566 13.6926 22.0082 13.3412 21.1236 13.3412Z" fill="white" fill-opacity="0.8"/>
</svg>
